<?xml version="1.0" encoding="UTF-8"?>
<svg id="Layer_1" data-name="Layer 1" xmlns="http://www.w3.org/2000/svg" width="347.9419" height="319.1807" viewBox="0 0 347.9419 319.1807">
  <polyline points="5.252 182.6017 216.6686 182.9141 227.1726 121.1049 178.445 50.5883 96.516 54.2031 107.1841 11.3541 199.8751 5.252 264.1809 111.2323 239.4693 242.677 182.0949 313.9287 54.3678 308.6767 72.6043 260.4554 169.9625 278.1762 210.3791 212.4461 268.3098 182.6017 342.6899 183.0831" style="fill: none; stroke: #000; stroke-miterlimit: 10; stroke-width: .63px;"/>
  <circle cx="342.6899" cy="183.0831" r="5.252"/>
  <circle cx="268.3098" cy="182.6017" r="5.252"/>
  <circle cx="210.3791" cy="212.4461" r="5.252"/>
  <circle cx="169.9625" cy="278.1762" r="5.252"/>
  <circle cx="72.6043" cy="260.4554" r="5.252"/>
  <circle cx="54.3678" cy="308.6767" r="5.252"/>
  <circle cx="182.0949" cy="313.9287" r="5.252"/>
  <circle cx="239.4693" cy="242.677" r="5.252"/>
  <circle cx="264.1809" cy="111.2323" r="5.252"/>
  <circle cx="199.8751" cy="5.252" r="5.252"/>
  <circle cx="96.516" cy="54.2031" r="5.252"/>
  <circle cx="107.02" cy="10.504" r="5.252"/>
  <circle cx="178.445" cy="50.5883" r="5.252"/>
  <circle cx="227.1726" cy="121.1049" r="5.252"/>
  <circle cx="216.6686" cy="182.9141" r="5.252"/>
  <circle cx="5.252" cy="182.6017" r="5.252"/>
</svg>